<svg xmlns="http://www.w3.org/2000/svg" width="24" height="24" viewBox="0 0 24 24">
  <g fill="none" stroke="currentColor" stroke-linecap="round" stroke-linejoin="round">
    <path stroke-width="2" d="M14 2H6a2 2 0 0 0-2 2v16a2 2 0 0 0 2 2h12a2 2 0 0 0 2-2V8z"/>
    <path stroke-width="2" d="M14 2v6h6"/>
    <path stroke-width="1.6" d="M7.4 6.9h4.6M7.9 5.6v2.6M10.3 5.6v2.6M7.4 8.2h4.6"/>
    <path stroke-width="2" d="M16 13a4 4 0 0 0-6.6-3L8 11"/>
    <path stroke-width="2" d="M8 11V8h3"/>
    <path stroke-width="2" d="M8 15a4 4 0 0 0 6.6 3L16 17"/>
    <path stroke-width="2" d="M16 17v3h-3"/>
  </g>
</svg>
